<?xml version="1.0" encoding="UTF-8"?>
<svg id="Layer_1" data-name="Layer 1" xmlns="http://www.w3.org/2000/svg" viewBox="0 0 283.60546875 68.1840820312">
  <defs>
    <style>
      .cls-1 {
        fill: #231f20;
      }
    </style>
  </defs>
  <path class="cls-1" d="M0,68.1840820312L3.5278320312.9360351562h10.1518554688l3.5283203125,67.248046875h-5.5439453125l-.7202148438-14.0400390625-1.0078125,1.4399414062c-1.2490234375,1.7280273438-2.16015625,3.1206054688-2.736328125,4.1762695312-.5756835938,1.0561523438-.9604492188,2.0766601562-1.1518554688,3.0600585938-.1923828125.984375-.3364257812,2.3159179688-.4321289062,3.9956054688l-.0717773438,1.3681640625H0ZM9.50390625,44.8559570312c.4321289062-1.19921875.6479492188-2.9033203125.6479492188-5.1118164062l-1.583984375-29.8081054688-2.087890625,40.1040039062c1.583984375-2.2553710938,2.591796875-3.9833984375,3.0239257812-5.1840820312Z"/>
  <path class="cls-1" d="M38.7358398438,68.1840820312h-5.904296875l-.0717773438-20.591796875c0-1.7280273438-.1689453125-3.1796875-.50390625-4.3564453125-.3364257812-1.1752929688-.984375-2.4838867188-1.9443359375-3.923828125-1.1044921875,1.6806640625-1.8481445312,3.14453125-2.2319335938,4.3920898438-.384765625,1.2485351562-.5756835938,2.8564453125-.5756835938,4.82421875v19.6557617188h-5.9760742188V.9360351562h9.1440429688c5.375,0,8.0639648438,2.7841796875,8.0639648438,8.3520507812v10.3681640625c0,3.16796875-.3129882812,5.6879882812-.9360351562,7.5600585938-.6245117188,1.8715820312-1.8720703125,4.15234375-3.744140625,6.83984375,1.8237304688,2.591796875,3.0600585938,4.8125,3.7080078125,6.66015625.6479492188,1.8481445312.9721679688,4.2836914062.9721679688,7.3076171875v20.16015625ZM32.759765625,10.0083007812c0-.9599609375-.1801757812-1.7158203125-.5400390625-2.2680664062-.3598632812-.5512695312-1.0439453125-.828125-2.0522460938-.828125h-2.6635742188v25.919921875c.1435546875-.1440429688.251953125-.2880859375.3237304688-.4321289062.072265625-.1440429688.1552734375-.2631835938.251953125-.3598632812,1.9194335938-2.6391601562,3.1791992188-4.6674804688,3.7802734375-6.083984375.599609375-1.4150390625.8999023438-3.2275390625.8999023438-5.4360351562v-10.51171875Z"/>
  <path class="cls-1" d="M59.3276367188,40.8959960938c.623046875,1.8720703125.9360351562,4.3920898438.9360351562,7.5600585938v19.7280273438h-5.904296875l-.0717773438-20.591796875c0-1.7280273438-.1689453125-3.1796875-.50390625-4.3564453125-.3364257812-1.1752929688-.984375-2.4838867188-1.9443359375-3.923828125-1.1044921875,1.6806640625-1.8481445312,3.14453125-2.2319335938,4.3920898438-.384765625,1.2485351562-.5756835938,2.8564453125-.5756835938,4.82421875v19.6557617188h-5.9760742188V.9360351562h5.9760742188v31.8959960938c3.5029296875-3.8881835938,5.255859375-7.9921875,5.255859375-12.3120117188l.0717773438-19.583984375h5.904296875v18.7202148438c0,3.16796875-.3129882812,5.6879882812-.9360351562,7.5600585938-.6245117188,1.8715820312-1.8720703125,4.15234375-3.744140625,6.83984375,1.8720703125,2.6884765625,3.1196289062,4.9677734375,3.744140625,6.83984375Z"/>
  <path class="cls-1" d="M78.6953125,68.1840820312L82.2236328125.9360351562h10.1513671875l3.5283203125,67.248046875h-5.5439453125l-.7197265625-14.0400390625-1.0087890625,1.4399414062c-1.248046875,1.7280273438-2.1591796875,3.1206054688-2.7353515625,4.1762695312-.576171875,1.0561523438-.9609375,2.0766601562-1.15234375,3.0600585938-.1923828125.984375-.3359375,2.3159179688-.431640625,3.9956054688l-.072265625,1.3681640625h-5.5439453125ZM88.19921875,44.8559570312c.431640625-1.19921875.6484375-2.9033203125.6484375-5.1118164062l-1.583984375-29.8081054688-2.0888671875,40.1040039062c1.583984375-2.2553710938,2.5927734375-3.9833984375,3.0244140625-5.1840820312Z"/>
  <path class="cls-1" d="M117.4306640625.9360351562v58.9682617188c0,5.5200195312-2.6884765625,8.2797851562-8.064453125,8.2797851562h-1.080078125c-2.8798828125,0-4.9443359375-.7314453125-6.19140625-2.1958007812-1.2490234375-1.4638671875-1.8720703125-3.4921875-1.8720703125-6.083984375V.9360351562h5.9755859375v58.1762695312c0,.9604492188.1806640625,1.7163085938.5400390625,2.267578125.3603515625.552734375,1.0439453125.828125,2.0517578125.828125,1.0087890625,0,1.7041015625-.275390625,2.0888671875-.828125.3828125-.5512695312.5751953125-1.3071289062.5751953125-2.267578125V.9360351562h5.9765625Z"/>
  <path class="cls-1" d="M138.2392578125,6.912109375h-5.6162109375v61.2719726562h-5.9755859375V6.912109375h-5.6162109375V.9360351562h17.2080078125v5.9760742188Z"/>
  <path class="cls-1" d="M158.3271484375,8.2802734375v51.6240234375c0,5.5200195312-2.6884765625,8.2797851562-8.064453125,8.2797851562h3.16796875-4.248046875c-2.8798828125,0-4.9443359375-.7314453125-6.19140625-2.1958007812-1.2490234375-1.4638671875-1.8720703125-3.4921875-1.8720703125-6.083984375V8.2802734375c0-2.6396484375.623046875-4.6801757812,1.8720703125-6.1201171875,1.2470703125-1.4399414062,3.3115234375-2.16015625,6.19140625-2.16015625h3.5283203125-2.4482421875c5.3759765625,0,8.064453125,2.7607421875,8.064453125,8.2802734375ZM152.3505859375,9.072265625c0-.9599609375-.1923828125-1.7158203125-.5751953125-2.2680664062-.384765625-.5512695312-1.080078125-.828125-2.0888671875-.828125-1.0078125,0-1.69140625.2768554688-2.0517578125.828125-.359375.5522460938-.5400390625,1.3081054688-.5400390625,2.2680664062v50.0400390625c0,.9604492188.1806640625,1.7163085938.5400390625,2.267578125.3603515625.552734375,1.0439453125.828125,2.0517578125.828125,1.0087890625,0,1.7041015625-.275390625,2.0888671875-.828125.3828125-.5512695312.5751953125-1.3071289062.5751953125-2.267578125V9.072265625Z"/>
  <path class="cls-1" d="M185.111328125,68.1840820312l.3603515625-59.3999023438-5.6162109375,59.3999023438h-5.9765625l-5.615234375-59.3999023438.359375,59.3999023438h-5.9755859375V.9360351562h11.2314453125l2.9521484375,42.1918945312,3.0244140625-42.1918945312h11.2314453125v67.248046875h-5.9755859375Z"/>
  <path class="cls-1" d="M195.1181640625,68.1840820312L198.646484375.9360351562h10.1513671875l3.5283203125,67.248046875h-5.5439453125l-.7197265625-14.0400390625-1.0087890625,1.4399414062c-1.248046875,1.7280273438-2.1591796875,3.1206054688-2.7353515625,4.1762695312-.576171875,1.0561523438-.9609375,2.0766601562-1.15234375,3.0600585938-.1923828125.984375-.3359375,2.3159179688-.431640625,3.9956054688l-.072265625,1.3681640625h-5.5439453125ZM204.6220703125,44.8559570312c.431640625-1.19921875.6484375-2.9033203125.6484375-5.1118164062l-1.583984375-29.8081054688-2.0888671875,40.1040039062c1.583984375-2.2553710938,2.5927734375-3.9833984375,3.0244140625-5.1840820312Z"/>
  <path class="cls-1" d="M230.6142578125,6.912109375h-5.6162109375v61.2719726562h-5.9755859375V6.912109375h-5.6162109375V.9360351562h17.2080078125v5.9760742188Z"/>
  <path class="cls-1" d="M240.55078125.9360351562v67.248046875h-5.9755859375V.9360351562h5.9755859375Z"/>
  <path class="cls-1" d="M262.078125,8.2802734375v51.6240234375c0,5.5200195312-2.6884765625,8.2797851562-8.064453125,8.2797851562h3.16796875-4.248046875c-2.8798828125,0-4.9443359375-.7314453125-6.19140625-2.1958007812-1.2490234375-1.4638671875-1.8720703125-3.4921875-1.8720703125-6.083984375V8.2802734375c0-2.6396484375.623046875-4.6801757812,1.8720703125-6.1201171875,1.2470703125-1.4399414062,3.3115234375-2.16015625,6.19140625-2.16015625h3.5283203125-2.4482421875c5.3759765625,0,8.064453125,2.7607421875,8.064453125,8.2802734375ZM256.1015625,9.072265625c0-.9599609375-.1923828125-1.7158203125-.5751953125-2.2680664062-.384765625-.5512695312-1.080078125-.828125-2.0888671875-.828125-1.0078125,0-1.69140625.2768554688-2.0517578125.828125-.359375.5522460938-.5400390625,1.3081054688-.5400390625,2.2680664062v50.0400390625c0,.9604492188.1806640625,1.7163085938.5400390625,2.267578125.3603515625.552734375,1.0439453125.828125,2.0517578125.828125,1.0087890625,0,1.7041015625-.275390625,2.0888671875-.828125.3828125-.5512695312.5751953125-1.3071289062.5751953125-2.267578125V9.072265625Z"/>
  <path class="cls-1" d="M283.60546875.9360351562v67.248046875h-5.83203125l-5.6884765625-36.9360351562v36.9360351562h-5.6875V.9360351562h5.6875l5.6884765625,36.3598632812V.9360351562h5.83203125Z"/>
</svg>