<?xml version="1.0" encoding="UTF-8"?>
<svg xmlns="http://www.w3.org/2000/svg" viewBox="0 0 64.29 84.6">
  <path fill="#231f20" d="M1.87,69.62L5.4,2.38h10.15l3.53,67.25h-5.54l-.72-14.04-1.01,1.44c-1.25,1.73-2.16,3.12-2.74,4.18-.58,1.06-.96,2.08-1.15,3.06-.19.98-.34,2.32-.43,4l-.07,1.37H1.87ZM11.38,46.3c.43-1.2.65-2.9.65-5.11l-1.58-29.81-2.09,40.1c1.58-2.26,2.59-3.98,3.02-5.18Z"/>
  <path fill="#231f20" d="M40.61,69.62h-5.9l-.07-20.59c0-1.73-.17-3.18-.5-4.36-.34-1.18-.98-2.48-1.94-3.92-1.11,1.68-1.85,3.14-2.23,4.39-.38,1.25-.58,2.86-.58,4.82v19.66h-5.98V2.38h9.14c5.38,0,8.06,2.78,8.06,8.35v10.37c0,3.17-.31,5.69-.94,7.56-.62,1.87-1.87,4.15-3.74,6.84,1.82,2.59,3.06,4.81,3.71,6.66.65,1.85.97,4.28.97,7.31v20.16ZM34.63,11.45c0-.96-.18-1.72-.54-2.27-.36-.55-1.04-.83-2.05-.83h-2.66v25.92c.14-.14.25-.29.32-.43s.16-.26.25-.36c1.92-2.64,3.18-4.67,3.78-6.08.6-1.42.9-3.23.9-5.44v-10.51Z"/>
  <path fill="#231f20" d="M61.2,42.34c.62,1.87.94,4.39.94,7.56v19.73h-5.9l-.07-20.59c0-1.73-.17-3.18-.5-4.36-.34-1.18-.98-2.48-1.94-3.92-1.11,1.68-1.85,3.14-2.23,4.39-.38,1.25-.58,2.86-.58,4.82v19.66h-5.98V2.38h5.98v31.9c3.5-3.89,5.26-7.99,5.26-12.31l.07-19.58h5.9v18.72c0,3.17-.31,5.69-.94,7.56-.62,1.87-1.87,4.15-3.74,6.84,1.87,2.69,3.12,4.97,3.74,6.84Z"/>
</svg>

